Patient4_TMGait_0pt3_03_left_15_EMG.mot
version=1
nRows=30
nColumns=33
inDegrees=no
endheader
time	1LAddLong	2LGlutMax	3LGlutMed	4LIliopsoas	5LSemiMemb	6LBicFemLong	7LRecFem	8LVastMed	9LVastLat	10LGasMed	11LTibAnt	12lTibPost	13LPeroneusLong	14LSol	15LExtDigLong	16LFlexDigLong	17RAddLong	18RGlutMax	19RGlutMed	20RIliopsoas	21RSemiMemb	22RBicFemLong	23RRecFem	24RVastMed	25RVastLat	26RGasMed	27RTibAnt	28RTibPost	29RPeroneusLong	30RSol	31RExtDigLong	32RFlexDigLong
28.7	-0.062561	0.046844	0.00351	0.00351	0.028839	0.069427	-0.038147	0.008698	-0.048218	-0.16022	0.017853	0.007477	-0.080566	0.10239	-0.00061	0.011444	-0.022583	-0.26932	-0.13763	-0.016632	-0.10803	0.023804	-0.014648	0.036163	0.12833	-0.010681	0.005798	0.004883	0.008545	-0.00351	-0.003357	-0.019836
28.701	-0.056	0.059204	0.017548	0.003815	0.030212	0.080261	-0.079803	0.014496	-0.060883	-0.11292	0.007477	0.008392	-0.055389	0.23163	-0.014954	0.009155	0.016022	-0.27924	-0.083618	-0.051727	-0.10101	-0.01297	-0.10788	0.000153	0.17181	-0.011902	0.031891	0.00473	0.007019	-0.032654	0.001221	-0.012512
28.702	0.032654	0.03891	0.02121	0.004578	0.002289	0.067749	-0.06424	0.007324	-0.028229	-0.080719	0.015106	0.004578	-0.037231	0.26504	-0.014954	0.015564	0.037537	-0.24628	0.013733	-0.074768	-0.010376	-0.024414	-0.10346	0.042572	0.17899	-0.01358	0.10269	0.009308	0.00885	-0.077057	-0.001678	-0.00885
28.703	-0.016174	0.1294	0.00885	0.018158	-0.010376	0.053406	-0.011139	0.006409	0.006104	-0.089417	0.003662	0.011444	-0.050964	0.17517	0.023499	0.010223	0.053558	-0.27268	-0.018463	-0.059662	-0.030212	-0.028229	-0.047607	0.059509	0.15762	-0.008545	0.26062	0.00885	-0.041962	-0.040894	0	-0.018005
28.704	-0.02655	0.061951	-0.006409	0.003815	-0.020905	0.035095	-0.023346	0.014954	0.076904	-0.077362	0.000305	-0.00412	-0.096588	0.14496	0.051117	-0.7222	0.044708	-0.16769	-0.081177	-0.019226	0.030212	0.007935	-0.050354	0.000458	0.17975	-0.004578	0.32989	0.007935	-0.054626	-0.011902	-0.000458	-0.010071
28.705	-0.005035	0.07309	-0.016174	0.007935	-0.023499	-0.009003	0.005341	0.002594	0.21515	-0.082703	0.002899	0.006714	-0.10895	0.062561	0.023193	0.27161	0.01709	-0.14847	-0.08728	-0.21774	0.053864	0.051575	0.038605	-0.053253	0.18219	-0.011902	0.41901	0.00946	-0.12787	-0.062103	-0.001678	-0.01358
28.706	-0.000763	0.06485	-0.039673	-0.010986	-0.044861	0.01358	0.058441	0.003967	0.1741	-0.072479	0.001526	-0.003357	-0.08667	-0.063477	-0.035553	0.92209	0.043945	-0.12054	-0.103	-0.24353	0.047302	0.036316	0.072327	-0.093536	0.1532	-0.007782	0.38803	0.006256	-0.14267	-0.1091	-0.001984	-0.016785
28.707	0.004578	0.094147	-0.078278	-0.016937	-0.078735	0.0383	0.018311	-0.005493	0.097046	-0.11185	0.001068	0.002747	0.025787	-0.16205	-0.034027	-0.049286	0.054016	-0.11963	-0.24994	-0.069122	0.098267	0.076447	0.083618	-0.066071	0.12543	-0.011444	-0.04715	0.010681	-0.10101	-0.18372	-0.003357	-0.015564
28.708	0.008392	0.080719	-0.052643	-0.014038	-0.046997	0.028381	0.02182	-0.004272	0.026398	-0.088196	-0.005188	0.006409	0.093079	-0.16296	-0.00473	-0.037994	0.016022	-0.15121	-0.21286	0.18143	0.19791	0.085449	0.057373	-0.10117	0.089417	-0.006409	-0.15778	0.006714	-0.036316	-0.16724	-0.005341	-0.015717
28.709	0.016174	0.072479	-0.018158	-0.004883	0.037842	-0.035553	0.066681	0.000458	-0.020294	-0.030823	-0.006409	-0.010834	0.040283	0.035095	0.00473	-0.10483	-0.014343	-0.18524	-0.11673	0.32638	0.14694	0.046387	0.040894	-0.12787	0.053406	-0.002899	-0.030518	0.00473	0.004272	-0.27145	-0.001984	-0.014801
28.71	0.017853	0.08667	0.076752	0.008087	0.074615	-0.1033	0.061951	-0.003815	0.00351	-0.007629	-0.003815	-0.15808	-0.024872	0.13123	0.012817	0.31326	-0.018921	-0.17548	0.11398	0.34637	0.066223	-0.067749	0.12329	-0.14252	0.028839	0.000305	-0.50064	0.008545	0.032349	-0.24429	-0.004578	-0.017548
28.711	0.019073	0.096741	0.033722	0.003815	0.077972	-0.078278	0.053711	0.001068	0.015717	0.21347	-0.00885	0.081329	-0.088043	-0.007324	0.028687	-0.062714	0.005646	-0.29434	0.16769	0.29709	0.012054	-0.13306	0.077972	-0.095062	0.030823	0.005341	-0.64743	0.000916	0.11032	-0.18921	0.002136	-0.014648
28.712	0.014954	0.090179	-0.025787	0.015564	0.074921	-0.1358	0.05722	0.002747	0.000458	0.27435	-0.00824	0.23025	-0.042572	-0.007172	0.01236	-0.047913	0.037079	-0.32379	0.10086	0.14679	0.025482	-0.19791	0.032196	0.063324	0.11429	0.001373	-0.15976	0.003967	-0.002136	-0.11612	0.001526	-0.023956
28.713	0.00946	0.0914	-0.041504	-0.008087	0.043945	-0.15945	0.066376	0.00351	0.004883	0.10864	-0.011597	-0.025635	-0.034637	0.08255	0.0177	-0.028381	0.072174	-0.41412	0.077057	0.058746	0.057068	-0.18082	0.013275	0.28961	0.16113	-0.001526	-0.22171	0.005035	-0.028992	-0.092773	-0.001068	-0.019531
28.714	0.009766	0.083923	-0.018616	0.009918	0.02594	-0.11719	0.08194	0.00061	0.001984	0.002289	0.002289	-0.037384	-0.021667	-0.021057	-0.018463	-0.069427	0.092926	-0.48996	0.079346	-0.005493	0.45227	-0.13931	0.03952	0.27512	0.08728	0.000305	0.02182	0.000763	-0.014801	-0.054932	-0.001068	-0.023499
28.715	0.011749	0.10696	0.008545	0.010834	0.043488	-0.052795	0.076904	0.000458	0.002747	-0.038452	0.003967	-0.020752	-0.056458	-0.080261	-0.033569	-0.061798	0.06485	-0.40314	0.092316	-0.053711	0.15701	-0.00885	-0.097046	0.17716	0.025787	-0.007477	0.1828	0.002136	0.040131	-0.029755	-0.000153	-0.012207
28.716	0.013733	0.099182	-0.025024	-0.007019	0.006866	0.010834	0.074615	0.006256	0.013428	-0.011749	0.00824	-0.020447	-0.046997	0.008087	-0.018921	-0.006256	0.005341	-0.32288	0.13825	-0.070496	-0.3804	0.13168	-0.042572	0.10193	0.071716	-0.003052	0.42068	0.003204	-0.012512	0.041962	-0.001221	-0.013733
28.717	0.006561	0.10819	-0.028534	0.006714	0.016632	0.036011	0.1091	0.002289	0.018158	0.016479	0.011597	-0.009613	-0.00412	-0.089569	-0.00885	-0.003967	-0.007935	-0.32486	0.2388	-0.097046	-0.2385	0.088654	0.065918	-0.026398	0.054932	-0.002289	0.48248	-0.000153	-0.053864	0.15167	-0.000305	-0.008392
28.718	0.00351	0.15076	0.076447	-0.002441	0.039368	0.046082	0.11505	0.003967	0.071106	0.026855	0.006561	-0.015106	0.022583	-0.25513	-0.00824	-0.018616	0.016022	-0.27161	0.13138	-0.065308	0.015564	0.027161	0.041046	-0.050812	-0.02594	-0.001526	0.15427	0.00061	-0.027771	0.16708	0.002441	-0.012817
28.719	-0.003662	0.15259	0.00824	0.005493	0.075836	0.036011	0.15396	0.014343	0.065308	0.029755	0.00351	0.000763	0.027771	-0.051422	-0.006409	-0.027313	0.012512	-0.2243	0.12421	-0.015717	-0.021362	0.048065	0.028534	-0.15945	-0.19943	-0.002136	-0.06485	0.001526	-0.035858	0.074921	-0.003357	-0.007629
28.72	-0.00946	0.15396	0.003967	0.000305	0.053864	-0.011139	0.14603	0.010986	0.042725	0.019684	-0.009918	0.009613	0.006714	0.032501	-0.008087	-0.026703	-0.00351	-0.17288	0.10086	0.006866	0.011749	0.053101	0.042725	-0.27634	-0.29541	-0.007477	0.075226	-0.002899	-0.054474	0.016327	0.000305	-0.007935
28.721	-0.004425	0.13306	0.095367	0.009003	-0.031738	-0.034637	0.12192	0.015106	0.009155	-0.003204	0.005798	0.010529	-0.015411	-0.040894	-0.003967	-0.015564	-0.028687	-0.031738	0.19196	-0.00473	-0.018311	0.025177	0.009155	-0.24735	-0.16403	-0.002441	-0.082855	-0.002136	0.047607	-0.058899	0.001373	-0.007782
28.722	0.001221	0.07309	0.054626	0.004883	-0.050507	-0.073395	0.091095	0.008698	-0.0177	-0.016479	0.000458	0.010986	-0.018311	-0.061188	-0.003967	-0.019073	-0.052643	0.000153	0.3302	-0.014038	-0.001678	0.008392	0.046844	-0.21912	-0.009766	-0.001831	-0.08728	-0.003662	0.05188	-0.042419	0.000305	-0.012817
28.723	0.017242	0.065002	-0.036163	-0.007935	-0.072479	-0.13931	0.040436	0.003967	0.068512	-0.01709	0.00412	0.014343	-0.007477	0.046997	0.007629	-0.019684	-0.054016	-0.082092	0.2034	-0.017853	-0.024719	-0.008545	0.04303	-0.099945	0.050812	0.001526	-0.00946	-0.008087	0.00473	-0.030975	-0.000916	-0.020294
28.724	0.019836	0.015869	-0.087433	-0.002136	0.001221	-0.10574	0.029297	0.003204	0.074615	-0.007324	0.007019	0.009003	0.000305	0.024261	0.009155	-0.026398	-0.053406	-0.16785	0.08728	-0.0354	-0.002594	-0.006256	0.014801	-0.16983	-0.053864	-0.002136	-0.13718	-0.013123	0.038757	-0.036163	-0.00351	-0.022736
28.725	0.020294	-0.04364	0.053711	-0.009308	0.009766	-0.031281	-0.022736	0.003662	0.035858	0.003967	0.002594	0.00473	0	0.044556	0.007172	-0.017242	-0.049438	-0.25528	-0.11673	-0.003204	-0.011444	-0.016785	-0.039215	-0.21042	-0.093231	0	-0.084991	-0.012207	0.000153	-0.001678	-0.001526	-0.017395
28.726	0.017853	-0.10666	0.093689	0.001373	0.060425	0.02533	0.022736	0.007172	0.028076	-0.005188	0.013428	0.008087	-0.063934	0.059662	0.006866	-0.016022	-0.045013	-0.17716	-0.096893	0.003052	-0.021667	-0.000305	-0.071869	-0.168	-0.064545	0	-0.094299	-0.015564	0.007172	0.090332	-0.002899	-0.010071
28.727	0.008392	-0.15579	0.010529	0.007629	0.068512	0.12405	0.054016	0.009155	0.000153	-0.041351	0.018005	0.001831	-0.11749	0.068665	0.009003	-0.051117	-0.030365	0.014801	0.041962	-0.088043	-0.023804	0.008392	-0.06546	-0.19379	-0.004425	0.007172	-0.2153	-0.014038	0.027466	0.073242	-0.002289	-0.010376
28.728	0.003357	-0.13412	-0.041199	0.021057	0.046387	0.050201	0.045624	0.007477	-0.003662	-0.042267	0.011292	0.041046	-0.082245	0.079041	0.018616	-1.0397	-0.008545	0.046387	0.23911	-0.13901	-0.074768	-0.011597	0.03479	-0.25589	0.011444	0.002441	-0.091248	-0.017548	-0.030975	0.064545	-0.003815	-0.016327
28.729	0.004883	-0.10498	-0.045166	0.022736	0.032959	0.030365	0.053406	0.005341	0.031891	-0.019379	-0.003052	0.20081	0.051727	0.12772	0.011444	0.39139	0.02655	0.098114	0.29602	-0.18204	-0.07782	-0.057373	0.028687	-0.24826	0.013123	-0.000916	0.017242	-0.016632	-0.04303	0.072937	0.001221	-0.006256
